<svg xmlns="http://www.w3.org/2000/svg" viewBox="0 0 75 14" fill="none">
  <style>
    .logo-letters { fill: #101722; }
    .logo-dot { fill: #E8000A; }
    @media (prefers-color-scheme: dark) {
      .logo-letters { fill: #FFFFFF; }
    }
  </style>
  <!-- Letters: N, A, M, E, S -->
  <path class="logo-letters" d="M19.0781 0C21.5652 5.93264e-05 23.9775 0.512708 24.835 2.98828C24.6123 4.58171 23.6328 5.81007 22.4092 6.04492L18.9424 6.67871C18.8213 6.69947 18.8213 6.88263 18.9424 6.90332L22.4502 7.61816C23.727 7.86347 24.7002 9.19089 24.8623 10.8652L25.1211 13.4893H21.5293V11.7285C21.1347 12.5237 19.8103 13.8584 17.3867 13.8584C14.8504 13.8584 12.9336 12.6086 12.9336 10.0527C12.9337 7.29824 14.0052 4.85573 21.5293 5.50879V5.19727C21.5293 3.91943 21.2759 2.81167 19.0781 2.81152C17.331 2.81152 16.8236 3.52129 16.6826 4.34473H13.4414C13.7515 1.13589 15.9782 0 19.0781 0ZM51.0605 0C54.1886 0.000227286 57.5697 2.24368 57.2598 7.89453H47.9316C48.2135 9.57003 49.2004 10.8193 51.0322 10.8193C52.6102 10.8192 53.427 10.0809 53.8779 9.03027H57.0908C56.4145 12.5515 53.7659 13.8582 51.0605 13.8584C47.9605 13.8584 44.6064 11.87 44.6064 6.92871C44.6067 1.95936 47.9606 0 51.0605 0ZM63.3037 0C67.6999 2.33363e-05 69.4188 1.90259 69.4189 4.34473H65.7275C65.7274 3.46446 64.8816 2.66992 63.2754 2.66992C61.6692 2.66993 60.9649 3.15215 60.9648 3.97559C60.9648 4.91266 62.5707 5.11156 64.4023 5.39551C67.1641 5.82147 69.9823 5.99203 69.9824 9.34277C69.9824 12.5234 67.5592 13.8584 63.501 13.8584C59.1891 13.8584 57.0752 12.2681 57.0752 9.22949L60.8799 9.25781C60.8799 10.7345 62.1766 11.1318 63.7266 11.1318C65.3608 11.1318 66.1502 10.7914 66.1504 9.85449C66.1504 8.66177 64.3459 8.63308 62.0068 8.17871C59.2734 7.66756 57.3857 7.04243 57.3857 4.34473C57.3858 1.64701 59.3583 0 63.3037 0ZM8.25098 0C11.0127 0 12.7322 1.84569 12.7324 4.79883V13.4893H9.09668V5.79297C9.09659 4.34484 8.36383 3.23738 6.72949 3.2373C5.12322 3.2373 3.60762 4.34479 3.60742 5.79297V13.4893H0V0.369141H3.60742V2.24316C4.03047 1.47635 5.99676 8.12363e-05 8.25098 0ZM40.1182 0C42.8799 0 44.4295 1.84569 44.4297 4.79883V13.4893H40.7949V5.79297C40.7948 3.86238 39.9211 3.23748 38.8223 3.2373C37.695 3.2373 36.7364 3.94729 36.7363 5.79297V13.4893H33.1006V5.79297C33.1005 3.8621 32.227 3.2373 31.1279 3.2373C30.0008 3.23738 29.0431 3.94738 29.043 5.79297V6.18262L28.2881 6.04492C26.9908 5.79988 25.9972 4.47314 25.835 2.77832L25.5996 0.369141H29.043V2.1582C29.4658 1.39141 30.5933 0 32.4531 0C34.3129 0.000143623 35.637 0.852516 36.2852 2.3291C36.567 1.78953 38.0327 4.83334e-06 40.1182 0ZM29.043 13.4893H25.5752L25.835 10.8652C25.9971 9.19081 26.9904 7.86339 28.2471 7.61816L29.043 7.45508V13.4893ZM21.5293 8.03711C18.1194 7.83834 16.457 8.00864 16.457 9.85449C16.4572 10.7914 17.1332 11.3877 18.373 11.3877C19.8103 11.3877 20.9374 10.5926 21.5293 9.57031V8.03711ZM51.0322 3.03906C49.4259 3.03906 48.4678 3.97582 48.0732 5.33887H53.8779C53.5398 3.97589 52.6665 3.03919 51.0322 3.03906Z"/>
  <!-- Red dot -->
  <path class="logo-dot" d="M72.2715 9.11621C73.5959 9.11622 74.6667 10.2515 74.667 11.5576C74.667 12.9207 73.596 14 72.2715 14C70.9469 14 69.876 12.9207 69.876 11.5576C69.8762 10.2515 70.9471 9.11621 72.2715 9.11621Z"/>
</svg>
